<svg width="22" height="22" viewBox="0 0 22 22" fill="none" xmlns="http://www.w3.org/2000/svg">
<g id="Icon=payment_check">
<path id="Vector" d="M1 8.38086H21" stroke="#809FB8" stroke-width="1.5" stroke-miterlimit="10" stroke-linecap="round" stroke-linejoin="round"/>
<path id="Vector_2" d="M10.5483 19.3806H5.43829C1.88829 19.3806 0.988281 18.4587 0.988281 14.7815V6.17012C0.988281 2.83869 1.72831 1.77012 4.51831 1.6025C4.79831 1.59202 5.10829 1.58154 5.43829 1.58154H16.5483C20.0983 1.58154 20.9983 2.50345 20.9983 6.18059V10.8006" stroke="#809FB8" stroke-width="1.5" stroke-linecap="round" stroke-linejoin="round"/>
<path id="Vector_3" d="M5 14.6665H9" stroke="#809FB8" stroke-width="1.5" stroke-miterlimit="10" stroke-linecap="round" stroke-linejoin="round"/>
<path id="Vector_4" d="M21 16.7618C21 17.5475 20.79 18.2913 20.42 18.9199C19.73 20.1351 18.46 20.9522 17 20.9522C15.54 20.9522 14.27 20.1351 13.58 18.9199C13.21 18.2913 13 17.5475 13 16.7618C13 14.4465 14.79 12.5713 17 12.5713C19.21 12.5713 21 14.4465 21 16.7618Z" stroke="#809FB8" stroke-width="1.5" stroke-miterlimit="10" stroke-linecap="round" stroke-linejoin="round"/>
<path id="Vector_5" d="M15.4414 16.7615L16.4314 17.7987L18.5614 15.7349" stroke="#809FB8" stroke-width="1.5" stroke-linecap="round" stroke-linejoin="round"/>
</g>
</svg>
