<svg width="22" height="21" viewBox="0 0 22 21" fill="none" xmlns="http://www.w3.org/2000/svg">
<g id="Family-Heart--Streamline-Streamline--3.0" clip-path="url(#clip0_4046_9042)">
<path id="Vector" d="M2.46924 5.25C2.46924 5.94619 2.7458 6.61387 3.23808 7.10616C3.73037 7.59844 4.39804 7.875 5.09424 7.875C5.79043 7.875 6.45811 7.59844 6.95039 7.10616C7.44268 6.61387 7.71924 5.94619 7.71924 5.25C7.71924 4.55381 7.44268 3.88613 6.95039 3.39384C6.45811 2.90156 5.79043 2.625 5.09424 2.625C4.39804 2.625 3.73037 2.90156 3.23808 3.39384C2.7458 3.88613 2.46924 4.55381 2.46924 5.25Z" stroke="#16CC69" stroke-width="1.3125" stroke-linecap="round" stroke-linejoin="round"/>
<path id="Vector_2" d="M7.27124 9.84357C6.67797 9.44992 5.98907 9.2245 5.27786 9.1913C4.56665 9.15809 3.85975 9.31835 3.23239 9.65501C2.60503 9.99168 2.08069 10.4921 1.71518 11.1032C1.34968 11.7142 1.15668 12.4128 1.15674 13.1248" stroke="#16CC69" stroke-width="1.3125" stroke-linecap="round" stroke-linejoin="round"/>
<path id="Vector_3" d="M20.188 13.1248C20.188 12.4128 19.995 11.7142 19.6295 11.1032C19.264 10.4921 18.7397 9.99168 18.1123 9.65501C17.485 9.31835 16.7781 9.15809 16.0669 9.1913C15.3557 9.2245 14.6668 9.44992 14.0735 9.84357" stroke="#16CC69" stroke-width="1.3125" stroke-linecap="round" stroke-linejoin="round"/>
<path id="Vector_4" d="M13.6255 5.25C13.6255 5.94619 13.9021 6.61387 14.3943 7.10616C14.8866 7.59844 15.5543 7.875 16.2505 7.875C16.9467 7.875 17.6144 7.59844 18.1066 7.10616C18.5989 6.61387 18.8755 5.94619 18.8755 5.25C18.8755 4.55381 18.5989 3.88613 18.1066 3.39384C17.6144 2.90156 16.9467 2.625 16.2505 2.625C15.5543 2.625 14.8866 2.90156 14.3943 3.39384C13.9021 3.88613 13.6255 4.55381 13.6255 5.25Z" stroke="#16CC69" stroke-width="1.3125" stroke-linecap="round" stroke-linejoin="round"/>
<path id="Vector_5" d="M13.6255 5.25C13.6255 5.25 13.6255 8.53125 11.6567 8.53125" stroke="#16CC69" stroke-width="1.3125" stroke-linecap="round" stroke-linejoin="round"/>
<path id="Vector_6" d="M18.8755 5.25C18.8755 5.25 18.8755 8.53125 20.8442 8.53125" stroke="#16CC69" stroke-width="1.3125" stroke-linecap="round" stroke-linejoin="round"/>
<path id="Vector_7" d="M8.37549 13.125C8.37549 13.6471 8.58291 14.1479 8.95212 14.5171C9.32133 14.8863 9.82209 15.0937 10.3442 15.0938C10.8664 15.0937 11.3671 14.8863 11.7364 14.5171C12.1056 14.1479 12.313 13.6471 12.313 13.125C12.313 12.6029 12.1056 12.1021 11.7364 11.7329C11.3671 11.3637 10.8664 11.1562 10.3442 11.1562C9.82209 11.1562 9.32133 11.3637 8.95212 11.7329C8.58291 12.1021 8.37549 12.6029 8.37549 13.125Z" stroke="#16CC69" stroke-width="1.3125" stroke-linecap="round" stroke-linejoin="round"/>
<path id="Vector_8" d="M13.7542 17.7188C13.4085 17.1205 12.9115 16.6236 12.313 16.2782C11.7146 15.9328 11.0357 15.751 10.3447 15.751C9.65375 15.751 8.97492 15.9328 8.37646 16.2782C7.77799 16.6236 7.28096 17.1205 6.9353 17.7188" stroke="#16CC69" stroke-width="1.3125" stroke-linecap="round" stroke-linejoin="round"/>
</g>
<defs>
<clipPath id="clip0_4046_9042">
<rect width="21" height="21" fill="white" transform="translate(0.492676)"/>
</clipPath>
</defs>
</svg>
