<svg width="22" height="21" viewBox="0 0 22 21" fill="none" xmlns="http://www.w3.org/2000/svg">
<g id="Family-Heart--Streamline-Streamline--3.0" clip-path="url(#clip0_4046_9120)">
<path id="Vector" d="M2.46924 5.25C2.46924 5.94619 2.7458 6.61387 3.23808 7.10616C3.73037 7.59844 4.39804 7.875 5.09424 7.875C5.79043 7.875 6.45811 7.59844 6.95039 7.10616C7.44268 6.61387 7.71924 5.94619 7.71924 5.25C7.71924 4.55381 7.44268 3.88613 6.95039 3.39384C6.45811 2.90156 5.79043 2.625 5.09424 2.625C4.39804 2.625 3.73037 2.90156 3.23808 3.39384C2.7458 3.88613 2.46924 4.55381 2.46924 5.25Z" stroke="#EA3A3D" stroke-width="1.3125" stroke-linecap="round" stroke-linejoin="round"/>
<path id="Vector_2" d="M7.27124 9.84357C6.67797 9.44992 5.98907 9.2245 5.27786 9.1913C4.56665 9.15809 3.85975 9.31835 3.23239 9.65501C2.60503 9.99168 2.08069 10.4921 1.71518 11.1032C1.34968 11.7142 1.15668 12.4128 1.15674 13.1248" stroke="#EA3A3D" stroke-width="1.3125" stroke-linecap="round" stroke-linejoin="round"/>
<path id="Vector_3" d="M20.1881 13.1248C20.1882 12.4128 19.9952 11.7142 19.6297 11.1032C19.2642 10.4921 18.7398 9.99168 18.1125 9.65501C17.4851 9.31835 16.7782 9.15809 16.067 9.1913C15.3558 9.2245 14.6669 9.44992 14.0736 9.84357" stroke="#EA3A3D" stroke-width="1.3125" stroke-linecap="round" stroke-linejoin="round"/>
<path id="Vector_4" d="M13.6256 5.25C13.6256 5.94619 13.9022 6.61387 14.3945 7.10616C14.8867 7.59844 15.5544 7.875 16.2506 7.875C16.9468 7.875 17.6145 7.59844 18.1068 7.10616C18.599 6.61387 18.8756 5.94619 18.8756 5.25C18.8756 4.55381 18.599 3.88613 18.1068 3.39384C17.6145 2.90156 16.9468 2.625 16.2506 2.625C15.5544 2.625 14.8867 2.90156 14.3945 3.39384C13.9022 3.88613 13.6256 4.55381 13.6256 5.25Z" stroke="#EA3A3D" stroke-width="1.3125" stroke-linecap="round" stroke-linejoin="round"/>
<path id="Vector_5" d="M13.6256 5.25C13.6256 5.25 13.6256 8.53125 11.6569 8.53125" stroke="#EA3A3D" stroke-width="1.3125" stroke-linecap="round" stroke-linejoin="round"/>
<path id="Vector_6" d="M18.8756 5.25C18.8756 5.25 18.8756 8.53125 20.8444 8.53125" stroke="#EA3A3D" stroke-width="1.3125" stroke-linecap="round" stroke-linejoin="round"/>
<path id="Vector_7" d="M8.37561 13.125C8.37561 13.6471 8.58303 14.1479 8.95224 14.5171C9.32146 14.8863 9.82222 15.0937 10.3444 15.0938C10.8665 15.0937 11.3673 14.8863 11.7365 14.5171C12.1057 14.1479 12.3131 13.6471 12.3131 13.125C12.3131 12.6029 12.1057 12.1021 11.7365 11.7329C11.3673 11.3637 10.8665 11.1562 10.3444 11.1562C9.82222 11.1562 9.32146 11.3637 8.95224 11.7329C8.58303 12.1021 8.37561 12.6029 8.37561 13.125Z" stroke="#EA3A3D" stroke-width="1.3125" stroke-linecap="round" stroke-linejoin="round"/>
<path id="Vector_8" d="M13.7542 17.7188C13.4085 17.1205 12.9115 16.6236 12.313 16.2782C11.7146 15.9328 11.0357 15.751 10.3447 15.751C9.65375 15.751 8.97492 15.9328 8.37646 16.2782C7.77799 16.6236 7.28096 17.1205 6.9353 17.7188" stroke="#EA3A3D" stroke-width="1.3125" stroke-linecap="round" stroke-linejoin="round"/>
</g>
<defs>
<clipPath id="clip0_4046_9120">
<rect width="21" height="21" fill="white" transform="translate(0.492676)"/>
</clipPath>
</defs>
</svg>
