<svg width="22" height="23" viewBox="0 0 22 23" fill="none" xmlns="http://www.w3.org/2000/svg">
<g clip-path="url(#clip0_49_50053)">
<path d="M19.5239 17.9077H10.3364L5.08643 21.8452V17.9077H2.46143C2.11333 17.9077 1.77949 17.7694 1.53335 17.5233C1.28721 17.2772 1.14893 16.9433 1.14893 16.5952V3.47021C1.14893 3.12212 1.28721 2.78828 1.53335 2.54214C1.77949 2.296 2.11333 2.15771 2.46143 2.15771H19.5239C19.872 2.15771 20.2059 2.296 20.452 2.54214C20.6981 2.78828 20.8364 3.12212 20.8364 3.47021V16.5952C20.8364 16.9433 20.6981 17.2772 20.452 17.5233C20.2059 17.7694 19.872 17.9077 19.5239 17.9077Z" stroke="#809FB8" stroke-width="1.3125" stroke-linecap="round" stroke-linejoin="round"/>
<path d="M5.08643 8.06396H16.8989" stroke="#001F33" stroke-width="1.3125" stroke-linecap="round" stroke-linejoin="round"/>
<path d="M5.08643 12.0015H14.2739" stroke="#001F33" stroke-width="1.3125" stroke-linecap="round" stroke-linejoin="round"/>
</g>
<defs>
<clipPath id="clip0_49_50053">
<rect width="21" height="21" fill="white" transform="translate(0.492676 1.50146)"/>
</clipPath>
</defs>
</svg>
