<svg width="22" height="27" viewBox="0 0 22 27" fill="none" xmlns="http://www.w3.org/2000/svg">
<path id="notification-2" fill-rule="evenodd" clip-rule="evenodd" d="M7.59456 25.6168C7.10005 25.1196 6.72798 24.5144 6.5074 23.8488C5.16011 23.6271 3.83296 23.2977 2.53841 22.8638C1.5699 22.558 0.793289 21.8278 0.428543 20.8798C0.0860135 19.928 0.205642 18.8709 0.752517 18.0198L2.13057 15.7198C2.45699 15.098 2.64534 14.4131 2.68257 13.7118V10.2418C2.68489 6.8772 4.75911 3.86192 7.89998 2.65668C8.47432 1.59558 9.58479 0.935489 10.7913 0.938026C11.998 0.940559 13.1057 1.60532 13.6756 2.66882C16.7995 3.88282 18.8582 6.88935 18.8607 10.2408V13.7148C18.9011 14.4194 19.0891 15.1076 19.4127 15.7348L20.7786 18.0188C21.2934 18.8836 21.3905 19.9344 21.0427 20.8788C20.6998 21.8192 19.9447 22.5504 18.9937 22.8628C17.7041 23.2966 16.3814 23.6257 15.0388 23.8468C14.5537 25.3307 13.3317 26.4556 11.8129 26.8166C10.294 27.1776 8.69673 26.7228 7.59578 25.6158L7.59456 25.6168ZM8.86555 24.3428C9.40755 24.8881 10.1572 25.175 10.9248 25.131C11.6923 25.087 12.4043 24.7164 12.8806 24.1128C12.1793 24.1695 11.4759 24.1978 10.7706 24.1978C10.0653 24.1978 9.36226 24.1695 8.66158 24.1128C8.72517 24.193 8.79329 24.2695 8.86555 24.3418V24.3428ZM4.47957 10.2428V13.7168C4.43745 14.7423 4.16389 15.745 3.67952 16.6498L2.30147 18.9498C2.0417 19.335 1.9753 19.8188 2.12129 20.2598C2.29805 20.6939 2.66536 21.022 3.11641 21.1488C8.08699 22.8314 13.473 22.8314 18.4436 21.1488C18.8734 21.0073 19.2136 20.6751 19.3654 20.2488C19.5258 19.8199 19.4816 19.3411 19.2453 18.9488L17.8674 16.6488C17.3801 15.7408 17.1064 14.7336 17.0673 13.7038V10.2418C17.0714 7.10842 14.7738 4.44752 11.6732 3.99481C11.0551 3.91798 10.4296 3.92134 9.81233 4.00481C6.7419 4.48784 4.47969 7.13362 4.47957 10.2418V10.2428Z" fill="white"/>
</svg>
