<svg width="26" height="25" viewBox="0 0 26 25" fill="none" xmlns="http://www.w3.org/2000/svg">
<g id="Office-Desk-2--Streamline-Streamline--3.0" clip-path="url(#clip0_4053_8775)">
<g id="Office-Desk-2--Streamline-Streamline--3.0_2">
<path id="Vector" d="M1.875 23.7866V15.8755" stroke="#0063A6" stroke-width="1.48333" stroke-linecap="round" stroke-linejoin="round"/>
<path id="Vector_2" d="M15.2251 15.8755H24.1251V23.2922C24.1251 23.4233 24.073 23.5491 23.9803 23.6418C23.8876 23.7345 23.7618 23.7866 23.6307 23.7866H15.7195C15.5884 23.7866 15.4626 23.7345 15.3699 23.6418C15.2772 23.5491 15.2251 23.4233 15.2251 23.2922V15.8755Z" stroke="#0063A6" stroke-width="1.48333" stroke-linecap="round" stroke-linejoin="round"/>
<path id="Vector_3" d="M2.36944 11.9199H23.6306C23.7617 11.9199 23.8875 11.972 23.9802 12.0647C24.0729 12.1574 24.125 12.2832 24.125 12.4143V15.8754H1.875V12.4143C1.875 12.2832 1.92709 12.1574 2.01982 12.0647C2.11255 11.972 2.23831 11.9199 2.36944 11.9199Z" stroke="#0063A6" stroke-width="1.48333" stroke-linecap="round" stroke-linejoin="round"/>
<path id="Vector_4" d="M15.2251 19.8311H24.1251" stroke="#0063A6" stroke-width="1.48333" stroke-linecap="round" stroke-linejoin="round"/>
<path id="Vector_5" d="M6.32513 1.53673H15.2251C15.2251 1.53673 16.7085 1.53673 16.7085 3.02006V7.47006C16.7085 7.47006 16.7085 8.95339 15.2251 8.95339H6.32513C6.32513 8.95339 4.8418 8.95339 4.8418 7.47006V3.02006C4.8418 3.02006 4.8418 1.53673 6.32513 1.53673Z" stroke="#0063A6" stroke-width="1.48333" stroke-linecap="round" stroke-linejoin="round"/>
<path id="Vector_6" d="M10.7749 8.95357V11.9202" stroke="#0063A6" stroke-width="1.48333" stroke-linecap="round" stroke-linejoin="round"/>
</g>
</g>
<defs>
<clipPath id="clip0_4053_8775">
<rect width="24.475" height="24.475" fill="white" transform="translate(0.762695 0.424225)"/>
</clipPath>
</defs>
</svg>
