<svg width="22" height="22" viewBox="0 0 22 22" fill="none" xmlns="http://www.w3.org/2000/svg">
<g id="icon_stroke">
<path id="Rectangle 106 (Stroke)" fill-rule="evenodd" clip-rule="evenodd" d="M0 3.83721C0 1.71798 1.71798 0 3.83721 0H6.46845C8.58768 0 10.3057 1.71798 10.3057 3.83721V6.46845C10.3057 8.58768 8.58768 10.3057 6.46845 10.3057H3.83721C1.71798 10.3057 0 8.58768 0 6.46845V3.83721ZM3.83721 1.53489C2.56567 1.53489 1.53489 2.56567 1.53489 3.83721V6.46845C1.53489 7.73999 2.56567 8.77077 3.83721 8.77077H6.46845C7.73999 8.77077 8.77077 7.73999 8.77077 6.46845V3.83721C8.77077 2.56567 7.73999 1.53489 6.46845 1.53489H3.83721Z" fill="#FFFFFFF"/>
<path id="Rectangle 107 (Stroke)" fill-rule="evenodd" clip-rule="evenodd" d="M11.6943 3.83721C11.6943 1.71798 13.4123 0 15.5316 0H18.1628C20.282 0 22 1.71798 22 3.83721V6.46845C22 8.58768 20.282 10.3057 18.1628 10.3057H15.5315C13.4123 10.3057 11.6943 8.58768 11.6943 6.46845V3.83721ZM15.5316 1.53489C14.26 1.53489 13.2292 2.56567 13.2292 3.83721V6.46845C13.2292 7.73999 14.26 8.77077 15.5315 8.77077H18.1628C19.4343 8.77077 20.4651 7.73999 20.4651 6.46845V3.83721C20.4651 2.56567 19.4343 1.53489 18.1628 1.53489H15.5316Z" fill="#FFFFFFF"/>
<path id="Rectangle 108 (Stroke)" fill-rule="evenodd" clip-rule="evenodd" d="M11.6943 15.5313C11.6943 13.4121 13.4123 11.6941 15.5316 11.6941H18.1628C20.282 11.6941 22 13.4121 22 15.5313V18.1625C22 20.2818 20.282 21.9998 18.1628 21.9998H15.5315C13.4123 21.9998 11.6943 20.2818 11.6943 18.1625V15.5313ZM15.5316 13.229C14.26 13.229 13.2292 14.2598 13.2292 15.5313V18.1625C13.2292 19.4341 14.26 20.4649 15.5315 20.4649H18.1628C19.4343 20.4649 20.4651 19.4341 20.4651 18.1625V15.5313C20.4651 14.2598 19.4343 13.229 18.1628 13.229H15.5316Z" fill="#FFFFFFF"/>
<path id="Rectangle 109 (Stroke)" fill-rule="evenodd" clip-rule="evenodd" d="M0 15.5313C0 13.4121 1.71798 11.6941 3.83721 11.6941H6.46845C8.58768 11.6941 10.3057 13.4121 10.3057 15.5313V18.1625C10.3057 20.2818 8.58768 21.9998 6.46845 21.9998H3.83721C1.71798 21.9998 0 20.2818 0 18.1625V15.5313ZM3.83721 13.229C2.56567 13.229 1.53489 14.2598 1.53489 15.5313V18.1625C1.53489 19.4341 2.56567 20.4649 3.83721 20.4649H6.46845C7.73999 20.4649 8.77077 19.4341 8.77077 18.1625V15.5313C8.77077 14.2598 7.73999 13.229 6.46845 13.229H3.83721Z" fill="#FFFFFFF"/>
</g>
</svg>
