<svg width="26" height="26" viewBox="0 0 26 26" fill="none" xmlns="http://www.w3.org/2000/svg">
<g id="Shopping-Cart-1--Streamline-Streamline--3.0" clip-path="url(#clip0_4046_8741)">
<path id="Vector" d="M19.7396 21.3668H8.97293C8.1786 21.3667 7.50025 20.7935 7.36788 20.0102L4.50609 3.1891C4.37227 2.40713 3.69433 1.8355 2.90105 1.83582H1.83316" stroke="white" stroke-width="2" stroke-linecap="round" stroke-linejoin="round"/>
<path id="Vector_2" d="M17.7048 24.6225C18.0181 24.6225 18.2139 24.2834 18.0573 24.0121C17.9845 23.8861 17.8502 23.8086 17.7048 23.8086" stroke="white" stroke-width="2"/>
<path id="Vector_3" d="M17.7048 24.6225C17.3915 24.6225 17.1957 24.2834 17.3524 24.0121C17.4251 23.8861 17.5595 23.8086 17.7048 23.8086" stroke="white" stroke-width="2"/>
<path id="Vector_4" d="M9.56554 24.6225C9.87886 24.6225 10.0747 24.2834 9.918 24.0121C9.84533 23.8861 9.71099 23.8086 9.56554 23.8086" stroke="white" stroke-width="2"/>
<path id="Vector_5" d="M9.56543 24.6225C9.25221 24.6225 9.0564 24.2834 9.21307 24.0121C9.28574 23.8861 9.42008 23.8086 9.56543 23.8086" stroke="white" stroke-width="2"/>
<path id="Vector_6" d="M6.76769 16.4833H19.8676C21.3613 16.4831 22.6632 15.4666 23.0257 14.0176L24.5993 7.7232C24.7278 7.20929 24.3389 6.71148 23.8092 6.71179H5.10627" stroke="white" stroke-width="2" stroke-linecap="round" stroke-linejoin="round"/>
</g>
<defs>
<clipPath id="clip0_4046_8741">
<rect width="24.9167" height="24.9167" fill="white" transform="matrix(-1 0 0 1 25.6868 0.770844)"/>
</clipPath>
</defs>
</svg>
