<svg width="23" height="22" viewBox="0 0 23 22" fill="none" xmlns="http://www.w3.org/2000/svg">
<g id="Task-List-Approve--Streamline-Streamline--3.0">
<path id="Vector" d="M10.8052 13.0728H15.6177" stroke="#0CB9C5" stroke-width="1.375" stroke-linecap="round" stroke-linejoin="round"/>
<path id="Vector_2" d="M10.8052 17.1978H15.6177" stroke="#0CB9C5" stroke-width="1.375" stroke-linecap="round" stroke-linejoin="round"/>
<path id="Vector_3" d="M10.8052 8.94775H15.6177" stroke="#0CB9C5" stroke-width="1.375" stroke-linecap="round" stroke-linejoin="round"/>
<path id="Vector_4" d="M8.05518 13.4165C7.96401 13.4165 7.87657 13.3803 7.81211 13.3158C7.74764 13.2514 7.71143 13.1639 7.71143 13.0728C7.71143 12.9816 7.74764 12.8942 7.81211 12.8297C7.87657 12.7652 7.96401 12.729 8.05518 12.729" stroke="#0CB9C5" stroke-width="1.375"/>
<path id="Vector_5" d="M8.05518 13.4165C8.14634 13.4165 8.23378 13.3803 8.29824 13.3158C8.36271 13.2514 8.39893 13.1639 8.39893 13.0728C8.39893 12.9816 8.36271 12.8942 8.29824 12.8297C8.23378 12.7652 8.14634 12.729 8.05518 12.729" stroke="#0CB9C5" stroke-width="1.375"/>
<path id="Vector_6" d="M8.05518 17.5415C7.96401 17.5415 7.87657 17.5053 7.81211 17.4408C7.74764 17.3764 7.71143 17.2889 7.71143 17.1978C7.71143 17.1066 7.74764 17.0192 7.81211 16.9547C7.87657 16.8902 7.96401 16.854 8.05518 16.854" stroke="#0CB9C5" stroke-width="1.375"/>
<path id="Vector_7" d="M8.05518 17.5415C8.14634 17.5415 8.23378 17.5053 8.29824 17.4408C8.36271 17.3764 8.39893 17.2889 8.39893 17.1978C8.39893 17.1066 8.36271 17.0192 8.29824 16.9547C8.23378 16.8902 8.14634 16.854 8.05518 16.854" stroke="#0CB9C5" stroke-width="1.375"/>
<path id="Vector_8" d="M8.05518 9.2915C7.96401 9.2915 7.87657 9.25529 7.81211 9.19082C7.74764 9.12636 7.71143 9.03892 7.71143 8.94775C7.71143 8.85659 7.74764 8.76915 7.81211 8.70469C7.87657 8.64022 7.96401 8.604 8.05518 8.604" stroke="#0CB9C5" stroke-width="1.375"/>
<path id="Vector_9" d="M8.05518 9.2915C8.14634 9.2915 8.23378 9.25529 8.29824 9.19082C8.36271 9.12636 8.39893 9.03892 8.39893 8.94775C8.39893 8.85659 8.36271 8.76915 8.29824 8.70469C8.23378 8.64022 8.14634 8.604 8.05518 8.604" stroke="#0CB9C5" stroke-width="1.375"/>
<path id="Vector_10" d="M14.9302 4.125H18.3677C18.7323 4.125 19.0821 4.26987 19.3399 4.52773C19.5978 4.78559 19.7427 5.13533 19.7427 5.5V19.9375C19.7427 20.3022 19.5978 20.6519 19.3399 20.9098C19.0821 21.1676 18.7323 21.3125 18.3677 21.3125H4.61768C4.253 21.3125 3.90327 21.1676 3.6454 20.9098C3.38754 20.6519 3.24268 20.3022 3.24268 19.9375V5.5C3.24268 5.13533 3.38754 4.78559 3.6454 4.52773C3.90327 4.26987 4.253 4.125 4.61768 4.125H8.05518C8.05518 3.21332 8.41734 2.33898 9.062 1.69432C9.70665 1.04966 10.581 0.6875 11.4927 0.6875C12.4044 0.6875 13.2787 1.04966 13.9234 1.69432C14.568 2.33898 14.9302 3.21332 14.9302 4.125Z" stroke="#0CB9C5" stroke-width="1.375" stroke-linecap="round" stroke-linejoin="round"/>
<g id="Group">
<path id="Vector_11" d="M11.4927 4.13525C11.4015 4.13525 11.3141 4.09904 11.2496 4.03457C11.1851 3.97011 11.1489 3.88267 11.1489 3.7915C11.1489 3.70034 11.1851 3.6129 11.2496 3.54844C11.3141 3.48397 11.4015 3.44775 11.4927 3.44775" stroke="#0CB9C5" stroke-width="1.375"/>
<path id="Vector_12" d="M11.4927 4.13525C11.5838 4.13525 11.6713 4.09904 11.7357 4.03457C11.8002 3.97011 11.8364 3.88267 11.8364 3.7915C11.8364 3.70034 11.8002 3.6129 11.7357 3.54844C11.6713 3.48397 11.5838 3.44775 11.4927 3.44775" stroke="#0CB9C5" stroke-width="1.375"/>
</g>
</g>
</svg>
