<svg xmlns="http://www.w3.org/2000/svg" xmlns:xlink="http://www.w3.org/1999/xlink" width="82.469" height="30.236" viewBox="0 0 82.469 30.236">
  <defs>
    <clipPath id="clip-path">
      <rect id="Rechteck_16" data-name="Rechteck 16" width="82.469" height="30.236" fill="#002e4f"/>
    </clipPath>
  </defs>
  <g id="Gruppe_47651" data-name="Gruppe 47651" transform="translate(-60.531 -24.957)">
    <g id="Gruppe_47244" data-name="Gruppe 47244" transform="translate(60.531 24.957)">
      <g id="Gruppe_47200" data-name="Gruppe 47200" transform="translate(0 0)">
        <g id="Gruppe_5" data-name="Gruppe 5" transform="translate(0 0)" clip-path="url(#clip-path)">
          <path id="Pfad_5" data-name="Pfad 5" d="M31.383,32.04a7.828,7.828,0,0,0,8.266-1.115,7.491,7.491,0,0,0,2.269-5.493,8.722,8.722,0,0,0-4.436-7.4c-3.679-2.105-8.193-.961-10.922,1.35-3.942,3.339-3.537,8.515-3.433,9.822a11.738,11.738,0,0,0,3.4,7.671,11.063,11.063,0,0,0,6.862,3.021c1,.054,5.34.291,6.547-2.292a4.707,4.707,0,0,0-.313-3.838,6.9,6.9,0,0,1-7.716.592,1.642,1.642,0,0,1-.521-2.315" transform="translate(-13.222 -9.7)" fill="#002e4f"/>
          <path id="Pfad_6" data-name="Pfad 6" d="M80.892,7.883A7.828,7.828,0,0,0,72.627,9a7.488,7.488,0,0,0-2.269,5.493,8.721,8.721,0,0,0,4.436,7.4c3.679,2.105,8.193.961,10.922-1.35,3.942-3.339,3.537-8.515,3.433-9.822a11.741,11.741,0,0,0-3.4-7.671A11.064,11.064,0,0,0,78.89.031c-1-.054-5.34-.291-6.547,2.292a4.707,4.707,0,0,0,.313,3.838,6.9,6.9,0,0,1,7.716-.592,1.642,1.642,0,0,1,.521,2.315" transform="translate(-40.335 0)" fill="#002e4f"/>
          <path id="Pfad_7" data-name="Pfad 7" d="M129.219,27.018a7.182,7.182,0,0,0-2.64.542,5.492,5.492,0,0,0-2.386,1.9,5.3,5.3,0,0,0-.614,1.085v0h-.349l-1.471-3.2H117.9V45.711h5.713V37.829a7.434,7.434,0,0,1,.615-3.272A3.984,3.984,0,0,1,126,32.713a6.273,6.273,0,0,1,2.892-.6h1.085v-5.1Z" transform="translate(-67.591 -15.489)" fill="#002e4f"/>
          <path id="Pfad_8" data-name="Pfad 8" d="M166.755,28.446a6.728,6.728,0,0,0-5.134-1.989,7.173,7.173,0,0,0-2.64.542,5.492,5.492,0,0,0-2.386,1.9,5.286,5.286,0,0,0-.614,1.085h-.349l-1.354-2.947H150.3V45.4h5.713V36.219a6.638,6.638,0,0,1,.542-2.911,3.858,3.858,0,0,1,1.428-1.645,3.574,3.574,0,0,1,1.9-.542,2.841,2.841,0,0,1,2.224.9,4,4,0,0,1,.813,2.748V45.4h5.713V34.195a8.06,8.06,0,0,0-1.88-5.749" transform="translate(-86.166 -15.167)" fill="#002e4f"/>
          <path id="Pfad_9" data-name="Pfad 9" d="M9.437,27.889a2.73,2.73,0,0,1-2.169.453,2.423,2.423,0,0,1-.827-.47,2.624,2.624,0,0,1-.8-2.175c0-4.532,0-13.577,0-19.989H0c0,6.6,0,15.916,0,20.66a11.777,11.777,0,0,0,.106,1.506,6.42,6.42,0,0,0,2.036,3.989A6.761,6.761,0,0,0,6.43,33.482a8.48,8.48,0,0,0,5.626-1.858c-.068-.063-.128-.119-.169-.158a10.686,10.686,0,0,1-2.4-3.494c-.015-.028-.031-.055-.046-.083" transform="translate(0 -3.272)" fill="#002e4f"/>
        </g>
      </g>
    </g>
  </g>
</svg>
