<svg width="138" height="44" viewBox="0 0 138 44" fill="none" xmlns="http://www.w3.org/2000/svg">
<path d="M8.96274 43.2705C5.84311 43.2705 3.56526 42.28 2.12924 40.2498C0.693215 38.2196 0 35.397 0 31.6831V13.3616H6.8335V30.7918C6.8335 33.2182 7.18014 34.9018 7.92291 35.8922C8.61616 36.8825 9.80465 37.3778 11.3892 37.3778C12.6767 37.3778 13.7661 37.0807 14.7564 36.437C15.7468 35.7932 16.7867 34.7534 17.8761 33.3669V13.4111H24.7096V42.5771H19.114L18.5692 38.3187H18.3711C17.0837 39.8042 15.6972 41.0421 14.2116 41.9334C12.7261 42.8247 10.9435 43.3199 8.96274 43.3199V43.2705Z" fill="#0063A6"/>
<path d="M37.1885 22.9183C35.9506 22.9183 34.9106 22.4726 34.0193 21.5813C33.128 20.69 32.7319 19.6005 32.7319 18.2636C32.7319 16.9266 33.1775 15.7877 34.0193 14.9459C34.9106 14.0546 35.9506 13.6584 37.1885 13.6584C38.4265 13.6584 39.5158 14.1041 40.3576 14.9459C41.1994 15.7877 41.5955 16.9266 41.5955 18.2636C41.5955 19.6005 41.1994 20.69 40.3576 21.5813C39.5158 22.4726 38.476 22.9183 37.1885 22.9183ZM37.1885 43.2702C35.9506 43.2702 34.9106 42.8245 34.0193 41.9331C33.128 41.0418 32.7319 39.9525 32.7319 38.6155C32.7319 37.2785 33.1775 36.1396 34.0193 35.2977C34.9106 34.4064 35.9506 34.0102 37.1885 34.0102C38.4265 34.0102 39.5158 34.4559 40.3576 35.2977C41.1994 36.1396 41.5955 37.2785 41.5955 38.6155C41.5955 39.9525 41.1994 41.0418 40.3576 41.9331C39.5158 42.8245 38.476 43.2702 37.1885 43.2702Z" fill="#0063A6"/>
<path d="M49.6665 42.5274V13.3614H55.3116L55.8068 18.5113H56.0544C57.0942 16.6297 58.3322 15.1441 59.7682 14.1537C61.2042 13.1634 62.7394 12.6187 64.3239 12.6187C65.0667 12.6187 65.7103 12.6186 66.2055 12.7177C66.7007 12.8167 67.1959 12.9653 67.6416 13.2129L66.2551 19.056C65.7599 18.9569 65.3637 18.8579 64.9675 18.8084C64.5714 18.7589 64.0762 18.7093 63.4325 18.7093C62.2936 18.7093 61.0557 19.1551 59.8178 20.0464C58.5303 20.9377 57.4409 22.4728 56.5496 24.7011V42.5274H49.7161H49.6665Z" fill="#0063A6"/>
<path d="M75.2185 8.26142C74.03 8.26142 73.0397 7.91479 72.2969 7.17202C71.5046 6.47877 71.158 5.48833 71.158 4.2999C71.158 3.11146 71.5542 2.17074 72.2969 1.47749C73.0397 0.784235 74.03 0.4375 75.2185 0.4375C76.4069 0.4375 77.4468 0.784235 78.1896 1.47749C78.9323 2.17074 79.3285 3.11146 79.3285 4.2999C79.3285 5.48833 78.9323 6.42925 78.1896 7.17202C77.4468 7.86527 76.4564 8.26142 75.2185 8.26142ZM71.8513 42.5278V13.3618H78.6848V42.5278H71.8513Z" fill="#0063A6"/>
<path d="M95.5702 43.2705C93.5399 43.2705 91.5591 42.8743 89.5784 42.1315C87.5977 41.3887 85.914 40.3488 84.478 38.9623L87.4987 35.0505C88.7862 36.1399 90.1231 36.8826 91.4601 37.3778C92.7971 37.873 94.2332 38.071 95.7187 38.071C97.3033 38.071 98.4917 37.7245 99.2344 37.0807C99.9772 36.3875 100.373 35.5952 100.373 34.6048C100.373 33.8125 100.076 33.1193 99.5315 32.5746C98.9373 32.0299 98.1945 31.5346 97.3032 31.1385C96.4118 30.7424 95.372 30.3463 94.2826 29.9501C92.8466 29.4549 91.5592 28.8112 90.3213 28.0684C89.0833 27.3256 88.0929 26.4342 87.3006 25.3448C86.5083 24.2554 86.1616 22.9185 86.1616 21.3835C86.1616 18.8085 87.1025 16.7288 89.0337 15.0947C90.9154 13.4606 93.4904 12.6682 96.7585 12.6682C98.7393 12.6682 100.571 13.0149 102.255 13.6587C103.939 14.3024 105.325 15.1443 106.514 16.1841L103.493 20.0465C102.453 19.3038 101.413 18.7591 100.324 18.3629C99.2344 18.0163 98.1451 17.8182 96.9567 17.8182C95.4711 17.8182 94.3817 18.1153 93.6884 18.759C92.9952 19.4027 92.599 20.1455 92.599 21.0368C92.599 21.73 92.8466 22.3738 93.2922 22.8689C93.7379 23.3641 94.4313 23.8098 95.2731 24.1564C96.1149 24.5031 97.2041 24.8993 98.3926 25.2954C99.8781 25.7906 101.314 26.4344 102.602 27.1771C103.889 27.9199 104.929 28.8607 105.721 29.9501C106.514 31.089 106.86 32.4755 106.86 34.2086C106.86 35.9417 106.415 37.3778 105.573 38.7643C104.681 40.1508 103.444 41.2402 101.76 42.0325C100.076 42.8248 97.9965 43.2705 95.5206 43.2705H95.5702Z" fill="#0063A6"/>
<path d="M125.578 43.2705C122.855 43.2705 120.379 42.6761 118.2 41.4382C116.021 40.2497 114.288 38.4671 113.001 36.1893C111.713 33.9115 111.119 31.1385 111.119 27.9199C111.119 24.7012 111.763 22.0273 113.1 19.7494C114.437 17.4716 116.071 15.7383 118.151 14.5004C120.231 13.2624 122.409 12.6682 124.687 12.6682C127.361 12.6682 129.54 13.2625 131.323 14.451C133.105 15.6394 134.442 17.2734 135.333 19.3532C136.225 21.433 136.67 23.8099 136.67 26.5334C136.67 27.1771 136.67 27.7713 136.571 28.3655C136.472 28.9597 136.423 29.554 136.324 30.0987H116.219V24.8498H130.58C130.58 22.77 130.085 21.0864 129.144 19.898C128.203 18.7095 126.717 18.0657 124.737 18.0657C123.647 18.0657 122.558 18.3629 121.518 18.9571C120.478 19.5513 119.587 20.5416 118.893 21.9776C118.2 23.4137 117.854 25.3944 117.854 27.9199C117.854 30.1977 118.25 32.0794 119.042 33.5154C119.834 34.9514 120.874 36.0408 122.211 36.7341C123.499 37.4273 124.935 37.7739 126.42 37.7739C127.708 37.7739 128.896 37.5759 130.035 37.2293C131.174 36.8826 132.214 36.3874 133.204 35.7436L135.581 40.1508C134.244 41.0916 132.709 41.8344 130.976 42.4286C129.243 42.9733 127.46 43.2705 125.578 43.2705Z" fill="#0063A6"/>
</svg>
