<svg width="26" height="27" viewBox="0 0 26 27" fill="none" xmlns="http://www.w3.org/2000/svg">
<path d="M12.8215 0.488892C12.8793 0.546028 12.9373 0.624081 12.9924 0.716163C12.9993 0.728152 13.0064 0.74014 13.0132 0.752383C13.0198 0.764117 13.0264 0.776105 13.0328 0.788094C13.0411 0.803653 13.0495 0.819469 13.0575 0.835539C13.0622 0.844721 13.0668 0.854159 13.0715 0.863597C13.081 0.883748 13.0906 0.904153 13.1001 0.924814C13.1026 0.930936 13.1053 0.936803 13.108 0.942925C13.1188 0.967412 13.1293 0.992409 13.1393 1.01792C13.2454 1.28294 13.3191 1.59821 13.3191 1.90022C13.3191 2.32824 13.1621 2.57387 12.9589 2.69248C12.9064 2.72309 12.8509 2.74528 12.7943 2.76008C12.7926 2.76059 12.7909 2.76084 12.7894 2.76135C12.7651 2.76722 12.7407 2.77181 12.7159 2.77513C12.7103 2.77589 12.7047 2.77666 12.6988 2.77742C12.6723 2.78023 12.6459 2.78227 12.6194 2.78227C12.593 2.78227 12.5663 2.78023 12.5401 2.77742C12.5342 2.77666 12.5286 2.77589 12.5227 2.77513C12.4982 2.77181 12.4737 2.76722 12.4495 2.76135C12.4478 2.76084 12.4461 2.76059 12.4443 2.76008C12.3878 2.74528 12.3322 2.72309 12.28 2.69274C12.0765 2.57387 11.9198 2.32824 11.9198 1.90022C11.9198 1.59821 11.9935 1.28294 12.0993 1.01817C12.1093 0.992409 12.1201 0.967412 12.1309 0.942925C12.1336 0.936803 12.136 0.930936 12.1387 0.924814C12.148 0.904153 12.1578 0.883493 12.1674 0.863597C12.172 0.854159 12.1764 0.844721 12.1811 0.835539C12.1892 0.819469 12.1975 0.803653 12.2058 0.788094C12.2124 0.776105 12.2191 0.764117 12.2254 0.752383C12.2325 0.74014 12.2394 0.728151 12.2465 0.716418C12.3016 0.624081 12.3596 0.546028 12.4172 0.488892C5.58611 0.602145 0.0625 6.42397 0.0625 13.5656C0.0625 16.9795 1.32512 20.0916 3.38926 22.4233V23.0885H4.68004C4.59139 23.2015 4.53776 23.3459 4.53776 23.503C4.53776 23.865 4.82061 24.1593 5.1681 24.1593C5.20018 24.1593 5.23152 24.1563 5.26238 24.1514C7.30447 25.6969 9.80866 26.6177 12.5151 26.6425V26.1175C12.5149 26.1175 12.5149 26.1173 12.5146 26.1173C12.447 26.0382 12.0474 25.5574 11.9499 25.1513C11.8637 24.7919 11.9732 24.4537 12.2712 24.1433C12.3866 24.145 12.5026 24.1463 12.6194 24.1463C12.7363 24.1463 12.8521 24.145 12.9677 24.1433C13.2654 24.4537 13.3752 24.7919 13.2887 25.1513C13.1915 25.5569 12.7911 26.0392 12.724 26.1178L12.7238 26.6427C15.4346 26.6213 17.9427 25.7005 19.988 24.1532C20.0152 24.1568 20.0426 24.1593 20.0705 24.1593C20.418 24.1593 20.7009 23.865 20.7009 23.503C20.7009 23.3459 20.6475 23.2015 20.5586 23.0885H21.8496V22.423C23.9135 20.0917 25.1761 16.9795 25.1761 13.5656C25.1761 6.42397 19.6525 0.602145 12.8215 0.488892ZM13.5206 1.90022C13.5206 1.62346 13.4609 1.31865 13.3639 1.04189C17.0893 1.39492 20.1707 4.3645 20.7479 8.25643H19.1118C18.551 5.23635 16.159 3.0024 13.2559 2.71518C13.4126 2.54173 13.5206 2.27901 13.5206 1.90022ZM19.0971 12.2833H21.0464V20.965H19.0971V12.2833ZM21.0464 21.7002H19.0971V21.28H21.0464V21.7002ZM19.0971 11.5482H21.0464V11.9683H19.0971V11.5482ZM21.4118 11.2332H18.732V10.4751H21.4118V11.2332ZM21.2639 10.1601H20.7476C20.8302 10.0583 20.9316 9.91289 21.0058 9.73765C21.08 9.91289 21.1813 10.0583 21.2639 10.1601ZM21.1101 9.32979H21.3719V9.96518C21.2585 9.81264 21.128 9.58359 21.1101 9.32979ZM20.5388 10.0889C20.4237 9.95982 20.1984 9.667 20.1749 9.32979H20.9024C20.8789 9.667 20.6539 9.95982 20.5388 10.0889ZM20.3299 10.1601H19.8137C19.8959 10.0583 19.9976 9.91289 20.0718 9.73765C20.146 9.91289 20.2473 10.0583 20.3299 10.1601ZM19.6048 10.0889C19.4894 9.95982 19.2644 9.667 19.2406 9.32979H19.9687C19.9449 9.667 19.7199 9.95982 19.6048 10.0889ZM19.3959 10.1601H18.8794C18.9619 10.0583 19.0633 9.91289 19.1375 9.73765C19.212 9.91289 19.3134 10.0583 19.3959 10.1601ZM18.7714 9.96518V9.32979H19.0332C19.0156 9.58359 18.8848 9.81264 18.7714 9.96518ZM18.732 8.57145H21.4118V9.01451H18.732V8.57145ZM12.6194 2.99781C15.6386 2.99781 18.2077 5.19732 18.8035 8.25643H18.6044C18.4727 7.82587 18.0867 7.51263 17.63 7.51263C17.3222 7.51263 16.1318 7.83913 15.1873 8.11282C15.1329 8.19547 15.0862 8.27505 15.0624 8.3355L15.0482 8.37096C16.1105 8.06028 17.3423 7.72281 17.63 7.72281C18.0182 7.72281 18.3431 8.00442 18.4296 8.38142V9.32979H18.5699V10.1601H18.4296V11.5482H18.7947V21.7002H18.5094C18.276 21.5446 17.977 21.4017 17.6261 21.2737C17.6638 20.9551 18.0953 17.2884 18.1115 15.5574C18.1129 15.3763 18.1146 15.1641 18.1164 14.9307H17.9146C17.9131 15.1631 17.9114 15.3746 17.9097 15.5551C17.8943 17.22 17.4899 20.7036 17.4307 21.2056C17.2512 21.1461 17.0602 21.09 16.8579 21.0377C16.9894 20.1506 17.429 17.105 17.4924 15.5699C17.5 15.3858 17.5086 15.1692 17.5181 14.9307H17.3161C17.307 15.1651 17.2984 15.3784 17.2909 15.5597C17.2282 17.0759 16.7942 20.0886 16.6608 20.9887C16.2281 20.8862 15.7496 20.8013 15.2399 20.7349C15.1626 20.4692 15.0818 20.2488 15.0325 20.1228C15.1055 20.1021 15.1454 20.083 15.1535 20.0789L15.2052 20.0519L15.2091 19.9917C15.2115 19.9498 15.2701 18.9601 14.9615 18.2232C14.9395 18.1709 14.9174 18.1207 14.8956 18.0715C14.9647 18.0937 15.0404 18.1102 15.1187 18.1102C15.166 18.1102 15.214 18.1044 15.2613 18.0908C15.6626 17.9753 15.9491 17.2649 16.1992 16.5142C16.3782 15.9775 16.4879 15.6013 16.519 15.4924C16.5447 15.5011 16.5687 15.5092 16.589 15.5161C16.7494 15.5717 16.9 15.4972 16.9549 15.3348C17.0065 15.184 16.9605 14.9891 16.795 14.9243C16.7737 14.9159 16.7453 14.906 16.7124 14.8945C16.7235 14.8448 16.7717 14.7208 16.9833 14.6035C17.2522 14.454 17.403 14.4639 17.594 14.4767C17.6528 14.4805 17.7135 14.4843 17.7801 14.4843C18.0338 14.4843 18.1568 14.3257 18.2011 14.1913H18.2949V10.4894L17.7424 9.98176L15.1545 9.9815V13.5689L15.5683 14.1925L15.7589 14.1923C15.7341 14.2244 15.7065 14.2594 15.6746 14.2979C15.5115 14.4961 15.5774 14.6876 15.6352 14.7611L15.6553 14.7866L15.6859 14.7955C15.6942 14.7981 16.5285 15.0445 16.724 15.121C16.7759 15.1412 16.781 15.2174 16.7651 15.2649C16.7374 15.3462 16.6735 15.3243 16.6527 15.3169C16.3899 15.2256 15.6122 14.9771 15.6043 14.9746L15.5666 14.9629L15.5314 14.9805C15.5279 14.982 15.5022 14.995 15.4603 15.02C15.4234 14.7596 15.3227 14.1515 15.1697 13.9798C15.0627 13.8599 14.938 13.777 14.8535 13.7286C14.9187 13.5304 14.9432 13.3319 14.7556 13.2059C14.5925 13.0965 14.3346 12.9876 14.244 12.9508C14.2396 12.9365 14.2337 12.9225 14.2264 12.909C14.1666 12.7996 14.0322 12.7616 13.9266 12.8228C13.8218 12.8855 13.7839 13.0258 13.8439 13.1347C13.9026 13.2414 14.0385 13.2832 14.1438 13.2217C14.1698 13.2064 14.1916 13.186 14.2087 13.1623C14.314 13.2064 14.5183 13.2967 14.6461 13.3824C14.733 13.4408 14.7134 13.5367 14.6064 13.8153L14.5861 13.8681C14.5011 14.0923 14.4083 14.2984 14.3642 14.3943L11.4954 14.467L10.9829 13.0952C11.0669 13.0419 11.1489 12.9988 11.3277 12.9365C11.3436 12.9309 11.3595 12.9256 11.3757 12.9205L11.7611 14.053L12.4179 14.0364L12.3523 13.828L11.9022 13.8393L11.5699 12.8628C11.6181 12.8498 11.6641 12.8381 11.706 12.8281C11.7734 12.9029 11.8858 12.9266 11.9761 12.8738C12.0809 12.8118 12.1169 12.6682 12.0587 12.5611C11.9989 12.4516 11.8645 12.4136 11.7589 12.4749C11.7031 12.5083 11.6671 12.5639 11.6536 12.6248C11.541 12.6521 11.3999 12.6901 11.264 12.7373C10.9701 12.8394 10.8124 12.9587 10.8026 12.9659L10.7385 13.0123L11.3563 14.6805L12.7798 14.6443C12.7561 14.7068 12.7573 14.7789 12.7916 14.8414C12.8501 14.9478 12.986 14.9899 13.0916 14.9282C13.1905 14.8698 13.227 14.7386 13.1819 14.6341L13.5921 14.6236C13.5755 14.6815 13.5799 14.7458 13.6107 14.8019C13.6693 14.9085 13.8052 14.9504 13.9107 14.8889C14.004 14.8338 14.0422 14.7144 14.0089 14.6131L14.2452 14.6073C14.3243 14.7124 14.458 14.9233 14.4656 15.0935C14.4779 15.357 14.3758 15.7378 14.2739 15.9622C14.2403 16.036 14.2163 16.0872 14.1992 16.1229C13.9604 16.0816 13.3179 15.9809 12.7137 15.9809C12.4466 15.9809 12.1108 16.0125 11.7163 16.0737L9.79862 10.8284C9.80547 10.6347 9.85372 10.4031 9.96906 10.3292C10.173 10.1983 10.4037 10.1746 10.4059 10.1741L10.5845 10.1567L10.4777 10.007C10.4672 9.99221 10.2161 9.64684 9.86816 9.73918C9.75331 9.76954 9.66564 9.82463 9.59953 9.88508C9.57553 9.79377 9.53022 9.69913 9.44696 9.62644C9.24518 9.4512 9.01939 9.40784 9.00984 9.40605L8.98389 9.40146L8.98364 9.39993L8.98266 9.40121L8.98144 9.40095L8.98168 9.40223L8.96478 9.42314C8.95866 9.4308 8.81149 9.61445 8.76373 9.8833C8.74414 9.99477 8.76716 10.0978 8.80463 10.184C8.71696 10.1815 8.61558 10.197 8.50856 10.2501C8.18434 10.4108 8.20295 10.8434 8.20393 10.8618L8.21348 11.0482L8.36164 10.9429C8.36359 10.9416 8.55558 10.8064 8.79263 10.7715C8.92634 10.7518 9.10486 10.897 9.22902 11.0408L10.1086 13.4469C9.99306 13.5038 9.80964 13.6204 9.61373 13.8502C9.30175 14.2157 9.17098 14.591 9.16559 14.6065L9.12812 14.7157L9.23612 14.744C9.2371 14.7443 9.2535 14.7483 9.27946 14.7555C9.25693 14.8312 9.21506 14.9544 9.13645 15.1452C9.06176 15.3263 8.96234 15.4337 8.847 15.5582C8.68488 15.7334 8.50073 15.9321 8.35845 16.3719C8.1672 16.9624 8.39567 17.4552 8.40547 17.4759L8.44343 17.5554L8.52497 17.5299C8.52816 17.5289 8.59207 17.509 8.69541 17.4766C8.81859 17.6508 9.16461 18.0796 9.68646 18.2347C9.75944 18.2564 9.82555 18.2745 9.88824 18.2906C9.83461 18.4474 9.69528 18.8627 9.6534 19.0706C9.60222 19.3239 9.56475 19.8371 9.56328 19.859L9.55961 19.9095L9.59536 19.944C9.59781 19.9463 9.61936 19.9656 9.65609 19.9917C9.58067 20.1756 9.44745 20.5222 9.37742 20.8275C9.09751 20.8755 8.82985 20.9293 8.57738 20.9893C8.44416 20.0896 8.00998 17.0759 7.94729 15.5597C7.89611 14.3257 7.80036 11.6959 7.74477 10.1611H7.54299C7.59857 11.6948 7.69457 14.3331 7.74575 15.5699C7.80918 17.105 8.24874 20.1508 8.38049 21.038C8.17822 21.09 7.98696 21.1461 7.80746 21.2056C7.7482 20.7033 7.34389 17.22 7.32847 15.5551C7.31696 14.3221 7.30545 11.6982 7.29933 10.1611H7.09754C7.10391 11.6984 7.11542 14.3236 7.12693 15.5574C7.14284 17.2881 7.57409 20.9546 7.61204 21.2734C7.26112 21.4017 6.96261 21.5446 6.72948 21.7002H6.44394V11.5482H6.80931V10.1601H6.66875V9.32979H6.80931V8.38167C6.89551 8.00442 7.22047 7.72281 7.60862 7.72281C7.8895 7.72281 9.06935 8.04421 10.1133 8.34851L10.2617 8.1743C9.29269 7.8904 7.93994 7.51263 7.60862 7.51263C7.15191 7.51263 6.76621 7.82587 6.63422 8.25643H6.43513C7.03093 5.19732 9.59977 2.99781 12.6194 2.99781ZM9.2202 22.0246C9.22534 22.033 9.35366 22.2322 9.68009 22.3062C9.92596 22.3618 10.1752 22.3225 10.2742 22.3021C10.3677 22.3626 10.6209 22.5103 10.9131 22.5439C11.2047 22.5779 11.491 22.4883 11.5985 22.4491C11.6896 22.4934 11.9159 22.5842 12.235 22.5842C12.5511 22.5842 12.7627 22.4871 12.8513 22.4368C12.9799 22.4802 13.3494 22.5893 13.7089 22.5439C14.0491 22.5008 14.3011 22.3595 14.4017 22.2947C14.4889 22.3271 14.6711 22.3784 14.8832 22.3468C15.1721 22.3037 15.3898 22.122 15.3989 22.1141L15.4388 22.0805L15.4359 22.0269C15.4346 22.0019 15.4067 21.5009 15.3213 21.0653C16.496 21.2278 17.4868 21.493 18.1139 21.8269C17.044 22.397 14.9182 22.7679 12.6194 22.7679C10.3205 22.7679 8.19487 22.397 7.12497 21.8269C7.64143 21.552 8.40449 21.3234 9.31399 21.1604C9.25105 21.5395 9.20673 21.9343 9.20428 21.955L9.20012 21.9927L9.2202 22.0246ZM8.96209 9.92156C8.98291 9.80372 9.02894 9.70526 9.06568 9.64072C9.13376 9.66597 9.22926 9.71112 9.31766 9.7879C9.45406 9.90626 9.41905 10.1585 9.4188 10.1606L9.61324 10.2121C9.61397 10.21 9.68671 10.0042 9.91788 9.94248C10.0205 9.91544 10.1148 9.95625 10.1858 10.0068C10.0913 10.034 9.97518 10.0787 9.86351 10.1504C9.66271 10.2792 9.61201 10.5914 9.59977 10.7676C9.57038 10.7809 9.52557 10.799 9.47414 10.8192C9.42198 10.838 9.37644 10.8536 9.34558 10.863C9.22828 10.7358 8.99784 10.5291 8.76447 10.5636C8.63444 10.5827 8.51787 10.6256 8.42849 10.6674C8.452 10.5814 8.49975 10.4873 8.59501 10.4399C8.811 10.3335 8.99295 10.4434 8.99466 10.4447L9.11294 10.2756C9.11123 10.2741 8.92977 10.1034 8.96209 9.92156ZM9.54173 11.0181C9.54222 11.0181 9.54247 11.0179 9.54296 11.0179C9.5432 11.0176 9.54369 11.0176 9.54418 11.0174C9.58067 11.0031 9.61128 10.9906 9.63797 10.9794L9.71389 11.1872C9.67397 11.1908 9.63308 11.2 9.59806 11.2201C9.57381 11.2339 9.55079 11.2525 9.52924 11.2722L9.44819 11.0505C9.47561 11.0416 9.50574 11.0314 9.54173 11.0181ZM9.69576 11.4038C9.71193 11.3944 9.7516 11.3936 9.79078 11.3974L9.85861 11.5826C9.8236 11.5872 9.78833 11.5961 9.75772 11.614C9.72907 11.6306 9.70213 11.6533 9.6774 11.6775L9.60859 11.4893C9.6343 11.4571 9.66785 11.4199 9.69576 11.4038ZM9.85543 11.7976C9.86939 11.7895 9.90073 11.7879 9.93428 11.79L12.246 18.1123L11.9761 17.9651L9.75748 11.8966C9.78368 11.8622 9.8236 11.8163 9.85543 11.7976ZM11.7898 16.2745C12.1554 16.2194 12.4661 16.191 12.7137 16.191C13.2894 16.191 13.9188 16.2882 14.1583 16.329L14.0963 16.6678C13.8642 16.615 13.2831 16.501 12.7083 16.5323C12.2269 16.5589 12.0063 16.5856 11.9093 16.6015L11.7898 16.2745ZM12.6123 19.457C12.6591 19.5473 12.6932 19.7032 12.712 19.8149C12.6824 19.8139 12.6471 19.8085 12.6096 19.7942C12.5474 19.7705 12.4906 19.6335 12.4529 19.5427C12.4341 19.4971 12.4162 19.4547 12.3986 19.4218C12.3226 19.2795 12.137 19.1798 12.1162 19.169L12.0258 19.3568C12.0834 19.3869 12.188 19.4591 12.2225 19.5239C12.2372 19.5517 12.2519 19.5876 12.2678 19.6261C12.2751 19.6437 12.2827 19.6618 12.2903 19.68L12.2742 19.6848C12.2337 19.6465 12.1703 19.5853 12.1172 19.5297C12.0574 19.4677 11.9362 19.3958 11.7829 19.3045C11.6764 19.2412 11.5664 19.1757 11.4717 19.1099C11.2978 18.9892 11.1678 18.7056 11.1374 18.6349C11.2743 18.5204 11.6955 18.1612 11.7702 18.0965C11.7717 18.0952 11.7731 18.0934 11.7746 18.0919L12.4316 18.451C12.4409 18.503 12.462 18.5839 12.5088 18.6898C12.5445 18.7701 12.5954 18.8339 12.6496 18.9017C12.725 18.9961 12.8033 19.0941 12.8582 19.2581C12.9175 19.4361 12.9243 19.6172 12.9219 19.7223H12.9006C12.8785 19.6078 12.843 19.4598 12.7901 19.3575C12.6939 19.1713 12.5215 19.0186 12.5144 19.0119L12.3841 19.1724C12.3856 19.1736 12.5347 19.3065 12.6123 19.457ZM10.9706 16.5655C10.9868 16.5188 10.9961 16.4696 11.002 16.4198C11.0465 16.4102 11.1073 16.3974 11.1817 16.3821L11.3047 16.7188L10.9334 16.7968C10.9082 16.7785 10.8835 16.7604 10.8607 16.7446C10.9082 16.6971 10.9457 16.6374 10.9706 16.5655ZM10.8127 15.786C10.7603 15.7416 10.7385 15.7232 10.7414 15.623C10.7419 15.6003 10.7652 15.5531 10.8007 15.4967C10.8418 15.5381 10.8734 15.5722 10.8942 15.5954L11.109 16.1831C11.0693 16.191 11.0341 16.1984 11.0034 16.2051C10.99 16.0745 10.955 15.961 10.9212 15.9051C10.8866 15.8485 10.8457 15.8138 10.8127 15.786ZM11.3776 16.918L11.586 17.4886C11.5434 17.4845 11.4998 17.4884 11.4572 17.5026C11.4026 17.3629 11.3002 17.1302 11.1844 17.0093C11.1712 16.9956 11.1555 16.9815 11.1406 16.9677L11.3776 16.918ZM11.575 17.6968C11.6184 17.7039 11.6477 17.7383 11.6644 17.7659C11.721 17.8582 11.6548 17.923 11.6409 17.935C11.5647 18.0013 11.123 18.3781 10.9998 18.4809C10.9109 18.5548 10.7833 18.5441 10.7368 18.4865C10.6836 18.4207 10.7218 18.3293 10.7343 18.3036C10.904 18.2041 11.3414 17.8358 11.456 17.7386C11.4962 17.7062 11.538 17.6909 11.575 17.6968ZM10.2671 13.8806C10.2568 13.8742 10.2475 13.8681 10.2365 13.8614C10.1481 13.8092 10.0756 13.7729 10.0183 13.7477C10.0817 13.6997 10.1373 13.6666 10.1806 13.6441L10.2671 13.8806ZM10.137 14.0441C10.2877 14.1331 10.3685 14.2122 10.4015 14.2484L10.7338 15.1572C10.5798 15.0307 10.3814 14.896 10.1532 14.8062C9.93428 14.72 9.58018 14.62 9.39897 14.5706C9.45676 14.441 9.5743 14.2124 9.76433 13.9897C9.79078 13.9586 9.81698 13.9306 9.8427 13.904C9.88237 13.916 9.98032 13.9515 10.137 14.0441ZM9.47463 14.809C9.52361 14.8228 9.577 14.8381 9.63234 14.8545C9.6485 14.968 9.65364 15.2049 9.49888 15.5074C9.26893 15.9569 8.89058 16.3461 8.88691 16.35L9.02797 16.4999C9.04437 16.4831 9.43202 16.0847 9.67691 15.6062C9.82262 15.3215 9.84711 15.0787 9.84 14.9182C9.92841 14.9468 10.0129 14.9756 10.0817 15.0029C10.3065 15.0912 10.5019 15.2309 10.6481 15.3559C10.592 15.4409 10.5418 15.5381 10.5396 15.6171C10.5342 15.8212 10.6217 15.8952 10.6856 15.949C10.7125 15.9719 10.7338 15.9898 10.7505 16.0173C10.7887 16.0803 10.8399 16.3255 10.7811 16.4938C10.7539 16.5714 10.7081 16.6198 10.641 16.6423C10.354 16.7382 8.92732 17.1848 8.55558 17.3011C8.50636 17.1514 8.42775 16.815 8.54922 16.439C8.67729 16.0441 8.83744 15.8712 8.99221 15.7039C9.11049 15.5763 9.23244 15.4447 9.32158 15.2281C9.40386 15.0287 9.44941 14.8955 9.47463 14.809ZM9.34656 17.2726C9.39897 17.3705 9.50231 17.5384 9.65046 17.6638C9.8618 17.8427 10.1799 17.9763 10.1934 17.9819L10.2683 17.787C10.2654 17.7858 9.96465 17.6593 9.7778 17.5011C9.67275 17.4121 9.59389 17.2942 9.54541 17.2101C9.99379 17.0693 10.4618 16.9213 10.6579 16.8573C10.7395 16.9111 10.9322 17.0438 11.0419 17.158C11.1337 17.2537 11.2317 17.4797 11.2831 17.6144C10.999 17.8539 10.6873 18.101 10.6219 18.1283C10.5066 18.1763 10.3121 18.2026 9.7418 18.0329C9.33407 17.9115 9.03996 17.5891 8.90283 17.4116C9.03188 17.3713 9.18494 17.3233 9.34656 17.2726ZM10.4194 18.3742C10.4522 18.3742 10.4821 18.3727 10.5098 18.3699C10.5027 18.451 10.5176 18.5413 10.582 18.6214C10.6214 18.6704 10.6755 18.7028 10.7348 18.7222C10.7182 18.8015 10.6983 18.9173 10.6851 19.0665C10.6596 19.3532 10.6594 19.6193 10.6594 19.6305H10.8612C10.8612 19.6279 10.8614 19.3624 10.8859 19.0856C10.9004 18.9219 10.9236 18.802 10.9395 18.7329C10.9452 18.7318 10.951 18.7301 10.9567 18.7285C10.9988 18.8252 11.146 19.1361 11.3595 19.2846C11.4602 19.3545 11.5784 19.4246 11.6828 19.4869C11.8062 19.5601 11.934 19.6361 11.9747 19.6784C12.064 19.7715 12.1757 19.8751 12.1806 19.8794L12.2213 19.9174L12.3922 19.869C12.4316 19.923 12.4794 19.9685 12.5408 19.9917C12.6089 20.0174 12.6721 20.0256 12.724 20.0256C12.7989 20.0256 12.8504 20.0088 12.8592 20.0057L12.9371 19.9787L12.9319 19.9325H13.1048L13.1163 19.8409C13.118 19.8276 13.156 19.5106 13.0485 19.1889C12.9816 18.9887 12.8834 18.866 12.8046 18.7673C12.7573 18.7081 12.7164 18.6569 12.6919 18.6018C12.6292 18.4607 12.6258 18.3834 12.6256 18.3834V18.3199L12.5156 18.2597L11.9827 16.8025C12.0719 16.79 12.246 16.7711 12.5663 16.7512C12.6114 16.854 12.7272 17.1386 12.7651 17.4261C12.8139 17.7939 12.8021 18.349 12.8021 18.3546L13.0037 18.3594C13.0042 18.3362 13.0159 17.7822 12.965 17.3975C12.9302 17.1356 12.8403 16.8841 12.782 16.74C12.9464 16.7344 13.1114 16.7402 13.2674 16.753C13.3394 16.8922 13.6009 17.4233 13.7373 18.0141C13.897 18.7046 13.9359 19.6644 13.9364 19.6741L14.138 19.6654C14.1363 19.6254 14.0978 18.6757 13.9335 17.9651C13.8172 17.4616 13.6193 17.0106 13.5074 16.7782C13.8747 16.8249 14.1465 16.8953 14.1509 16.8968L14.2548 16.9241L14.3868 16.2023C14.4046 16.164 14.4272 16.1155 14.4558 16.0523C14.5714 15.7985 14.6809 15.3842 14.6672 15.0833C14.6593 14.9098 14.5685 14.7287 14.4884 14.6012H14.4908L14.518 14.5445C14.5234 14.5331 14.6537 14.2611 14.7737 13.9456L14.7805 13.9273C14.8501 13.9691 14.9427 14.0339 15.022 14.1226C15.1197 14.2326 15.2277 14.7846 15.273 15.1417L15.2799 15.1406C15.1795 15.2141 15.0568 15.3144 14.9253 15.4457C14.6388 15.7322 14.5837 15.8003 14.5756 15.811L14.733 15.9421C14.735 15.9395 14.7867 15.8755 15.0646 15.5972C15.2995 15.3626 15.5064 15.2332 15.5847 15.1881C15.656 15.211 15.8147 15.2621 15.9895 15.3184C15.9452 15.4789 15.622 16.1518 15.4324 16.3938C15.1951 16.6966 15.0098 16.8397 15.0058 16.843L15.1398 17.0001C15.1552 16.9859 15.3411 16.8428 15.5887 16.5265C15.8017 16.2546 16.1333 15.5587 16.1823 15.3809C16.2317 15.3973 16.2805 15.4131 16.327 15.4284C16.2981 15.5294 16.1889 15.9046 16.0089 16.4454C15.8867 16.8122 15.5622 17.7863 15.2076 17.8883C15.0389 17.9368 14.8359 17.8279 14.7575 17.7802C14.5313 17.3284 14.341 17.0721 14.3309 17.0586L14.172 17.1876C14.1749 17.1917 14.4835 17.6075 14.7764 18.3071C15.0213 18.8915 15.0178 19.6782 15.0105 19.9105C14.9441 19.9322 14.8141 19.9641 14.613 19.9718C14.3278 19.9832 14.2303 19.9353 14.2291 19.935L14.1708 19.8988L14.1159 19.9396C14.1127 19.9422 13.7922 20.1723 12.6831 20.2345C11.5576 20.2972 10.915 19.9483 10.9087 19.9447L10.8751 19.9261L10.8382 19.935C10.8345 19.9361 10.4743 20.0218 10.1706 19.973C9.96391 19.9396 9.82898 19.8606 9.76874 19.818C9.77976 19.6766 9.81184 19.3063 9.85078 19.1139C9.89216 18.9086 10.0433 18.4625 10.0866 18.336C10.224 18.363 10.3325 18.3742 10.4194 18.3742ZM9.83486 20.0911C9.91616 20.1271 10.0171 20.1608 10.14 20.1807C10.4265 20.2266 10.7419 20.17 10.8477 20.1478C10.9858 20.2161 11.5265 20.4523 12.4086 20.4523C12.4999 20.4523 12.5952 20.4498 12.6941 20.4442C13.6443 20.3909 14.052 20.2151 14.1847 20.1409C14.2543 20.1641 14.3875 20.1906 14.6206 20.1817C14.7005 20.1786 14.7695 20.1717 14.8307 20.1633C14.8797 20.2875 14.984 20.5635 15.0744 20.8933C15.1755 21.2619 15.2191 21.806 15.2309 21.9818C15.1648 22.0282 15.0235 22.1139 14.8545 22.1389C14.689 22.1634 14.5445 22.1233 14.4759 22.0991L14.2673 20.5536L14.0677 20.5829L14.2761 22.1282C14.1811 22.1868 13.9673 22.2998 13.6847 22.3355C13.3962 22.372 13.0879 22.2917 12.9495 22.2483L12.8587 20.7194L12.6574 20.7327L12.748 22.2557C12.6782 22.2945 12.5019 22.3741 12.235 22.3741C11.9928 22.3741 11.8148 22.3146 11.7237 22.2761L11.8211 20.7199L11.6196 20.7064L11.5228 22.2537C11.4254 22.2881 11.1773 22.3631 10.9351 22.3355C10.6939 22.3075 10.4762 22.184 10.3905 22.13L10.6763 20.6288L10.4787 20.588L10.1899 22.1042C10.0873 22.1213 9.90073 22.1409 9.72295 22.1009C9.54418 22.0603 9.44843 21.9772 9.40974 21.9351C9.42713 21.7859 9.48786 21.29 9.56083 20.9321C9.61961 20.6431 9.75601 20.2853 9.83486 20.0911ZM15.3443 12.847C15.3433 12.846 15.3421 12.8457 15.3411 12.8447V11.0975L15.5622 11.4372V13.1835L15.3443 12.847ZM15.5622 13.4834V13.877L15.3411 13.5526V13.1437L15.5622 13.4834ZM15.3443 10.8008C15.3433 10.7998 15.3421 10.7995 15.3411 10.7985V10.3146L15.5622 10.6393V11.1372L15.3443 10.8008ZM15.452 10.1394H15.9403L16.1952 10.4894H15.7033L15.452 10.1394ZM17.629 11.4257H18.0933V13.2811H17.629V11.4257ZM18.0933 13.9811H17.629V13.4911H18.0933V13.9811ZM17.629 10.6993H18.0933V11.2158H17.629V10.6993ZM17.6136 10.4894V10.4891L17.273 10.1394H17.6866L18.0701 10.4894H17.6136ZM16.4823 11.4257H17.4273V13.2811H16.4823V11.4257ZM17.4273 13.9811H16.4823V13.4911H17.4273V13.9811ZM16.4823 10.6993H17.4273V11.2158H16.4823V10.6993ZM17.4089 10.4894H16.4519V10.4891L16.197 10.1394H17.0683L17.4089 10.4894ZM16.2805 11.2158H15.7638V10.6993H16.2805V11.2158ZM16.2805 13.2811H15.7638V11.4257H16.2805V13.2811ZM15.7638 13.4911H16.2805V13.9811H15.7638V13.4911ZM15.8277 14.4346C15.9141 14.3295 15.9756 14.2466 16.0143 14.1923L17.9729 14.1913C17.9393 14.2349 17.882 14.2744 17.7801 14.2744C17.7182 14.2744 17.6614 14.2706 17.6068 14.267C17.4015 14.2535 17.2078 14.2407 16.8883 14.418C16.6299 14.5616 16.5467 14.7295 16.5197 14.8312C16.253 14.746 15.8982 14.6402 15.7799 14.605C15.7691 14.5739 15.763 14.5132 15.8277 14.4346ZM4.19223 12.2833H6.14151V20.965H4.19223V12.2833ZM6.14151 21.7002H4.19223V21.28H6.14151V21.7002ZM4.19223 11.5482H6.14151V11.9683H4.19223V11.5482ZM6.50664 11.2332H3.82711V10.4751H6.50664V11.2332ZM4.23288 9.73765C4.30708 9.91289 4.40846 10.0583 4.49099 10.1601H3.97477C4.0573 10.0583 4.15868 9.91289 4.23288 9.73765ZM3.86653 9.96518V9.32979H4.12832C4.11068 9.58359 3.97992 9.81264 3.86653 9.96518ZM4.33598 9.32979H5.06353C5.04002 9.667 4.81497 9.95982 4.69988 10.0889C4.58454 9.95982 4.35949 9.667 4.33598 9.32979ZM5.16687 9.73765C5.24107 9.91289 5.34245 10.0583 5.42498 10.1601H4.90876C4.99104 10.0583 5.09267 9.91289 5.16687 9.73765ZM5.26997 9.32979H5.99777C5.97401 9.667 5.74896 9.95982 5.63387 10.0889C5.51877 9.95982 5.29348 9.667 5.26997 9.32979ZM6.10086 9.73765C6.17506 9.91289 6.27644 10.0583 6.35897 10.1601H5.84275C5.92528 10.0583 6.02666 9.91289 6.10086 9.73765ZM6.20518 9.32979H6.46696V9.96518C6.35358 9.81264 6.22306 9.58359 6.20518 9.32979ZM3.82711 8.57145H6.50664V9.01451H3.82711V8.57145ZM11.983 2.71518C9.07939 3.0024 6.6876 5.23635 6.12682 8.25643H4.49075C5.06818 4.3645 8.14932 1.39492 11.875 1.04189C11.7778 1.31865 11.718 1.62346 11.718 1.90022C11.718 2.27901 11.826 2.54173 11.983 2.71518ZM0.566472 13.5656C0.566472 8.08834 3.95176 3.42072 8.65697 1.70994C6.31416 2.99602 4.59384 5.38786 4.18391 8.25643H3.52468V9.32979H3.665V10.1601H3.52468V11.5482H3.8898V21.7002H3.44754C1.65229 19.5075 0.566472 16.6665 0.566472 13.5656ZM3.69169 22.7735V22.0152H6.64206V22.7735H3.69169ZM5.1681 23.8443C4.98737 23.8443 4.84044 23.691 4.84044 23.503C4.84044 23.3148 4.98737 23.1617 5.1681 23.1617C5.34858 23.1617 5.49575 23.3148 5.49575 23.503C5.49575 23.691 5.34858 23.8443 5.1681 23.8443ZM5.70978 23.8367C5.76561 23.7387 5.79818 23.6249 5.79818 23.503C5.79818 23.3459 5.7448 23.2015 5.65591 23.0885H6.84164C7.01918 23.1951 7.22855 23.2954 7.46438 23.3882C7.43475 23.501 7.40928 23.6492 7.4225 23.8015C7.48152 24.4761 7.8486 24.87 9.0576 25.5548C7.84958 25.1636 6.72287 24.5789 5.70978 23.8367ZM9.15898 25.3735C8.00557 24.7202 7.67522 24.3782 7.62331 23.7823C7.61327 23.6665 7.63237 23.5515 7.65539 23.4599C8.06655 23.6068 8.54824 23.7336 9.08306 23.8369C9.05711 23.9599 9.03531 24.1456 9.07523 24.345C9.17147 24.8256 9.62206 25.4242 10.4282 25.8497C9.99502 25.7319 9.50867 25.5714 9.15898 25.3735ZM11.1543 25.9298C10.0107 25.5569 9.37717 24.8246 9.2726 24.3022C9.23906 24.1338 9.26012 23.9747 9.28216 23.8736C9.69283 23.9469 10.1314 24.0063 10.5918 24.0512C10.5318 24.219 10.4598 24.4953 10.4983 24.7843C10.5536 25.2005 10.8543 25.6842 11.4117 26.0094C11.3345 25.9869 11.2498 25.9609 11.1543 25.9298ZM11.7543 25.2023C11.8339 25.5337 12.0785 25.8923 12.2364 26.0989C12.2012 26.0936 12.1603 26.0849 12.1133 26.0726C11.2253 25.8387 10.7627 25.2426 10.6978 24.7554C10.6611 24.4777 10.7485 24.2037 10.8017 24.0703C11.1898 24.1035 11.5919 24.1262 12.0036 24.1374C11.7508 24.4644 11.6644 24.8274 11.7543 25.2023ZM12.6194 23.8313C10.1826 23.8313 7.94092 23.4145 6.94449 22.7855V22.084C8.05651 22.697 10.2152 23.0829 12.6194 23.0829C15.0235 23.0829 17.1821 22.697 18.2941 22.0843V22.7858C17.2975 23.4145 15.056 23.8313 12.6194 23.8313ZM13.0022 26.0989C13.1604 25.8926 13.405 25.5337 13.4844 25.2023C13.5745 24.8274 13.488 24.4644 13.2351 24.1374C13.6467 24.1262 14.0491 24.1035 14.437 24.0703C14.4901 24.2037 14.5775 24.4777 14.5408 24.7554C14.4759 25.2426 14.0133 25.8387 13.1256 26.0726C13.0786 26.0851 13.0375 26.0936 13.0022 26.0989ZM13.8272 26.0094C14.3843 25.6842 14.685 25.2005 14.7404 24.7843C14.7788 24.4953 14.7068 24.219 14.6468 24.0512C15.1072 24.0063 15.5461 23.9466 15.9567 23.8736C15.979 23.9741 15.9998 24.1325 15.966 24.3022C15.8615 24.8246 15.2282 25.5569 14.0843 25.9298C13.9888 25.9609 13.9044 25.9869 13.8272 26.0094ZM14.8104 25.8497C15.6168 25.4242 16.0672 24.8256 16.1634 24.345C16.2033 24.1456 16.1815 23.9599 16.1556 23.8369C16.6906 23.7336 17.1721 23.6068 17.5835 23.4599C17.6065 23.5515 17.6254 23.6665 17.6153 23.7823C17.5634 24.3782 17.2333 24.7202 16.0797 25.3735C15.73 25.5712 15.2439 25.7319 14.8104 25.8497ZM19.5333 23.8441C18.5128 24.5899 17.3778 25.1763 16.1607 25.5663C16.1656 25.5633 16.171 25.5607 16.1759 25.5579C17.3893 24.871 17.7571 24.4769 17.8161 23.8015C17.8294 23.6492 17.8041 23.501 17.7743 23.3882C18.0101 23.2954 18.2195 23.1951 18.3972 23.0885H19.5827C19.4938 23.2015 19.4405 23.3459 19.4405 23.503C19.4405 23.628 19.4747 23.7446 19.5333 23.8441ZM20.0705 23.8443C19.8901 23.8443 19.7429 23.691 19.7429 23.503C19.7429 23.3148 19.8901 23.1617 20.0705 23.1617C20.2513 23.1617 20.3984 23.3148 20.3984 23.503C20.3984 23.691 20.2513 23.8443 20.0705 23.8443ZM21.5469 22.7735H18.5966V22.0152H21.5469V22.7735ZM21.7909 21.7002H21.3488V11.5482H21.7142V10.1601H21.5736V9.32979H21.7142V8.25643H21.0547C20.6448 5.38786 18.9245 2.99602 16.5814 1.70994C21.2869 3.42072 24.6722 8.08834 24.6722 13.5656C24.6722 16.6665 23.5861 19.5075 21.7909 21.7002Z" fill="white"/>
</svg>
